<?xml version="1.0" encoding="UTF-8"?>
<svg width="24px" height="24px" viewBox="0 0 24 24" version="1.1" xmlns="http://www.w3.org/2000/svg" xmlns:xlink="http://www.w3.org/1999/xlink">
    <title>Group 3</title>
    <g id="Page-1" stroke="none" stroke-width="1" fill="none" fill-rule="evenodd">
        <g id="dashboard" transform="translate(-487.000000, -426.000000)">
            <g id="Group-3" transform="translate(487.000000, 426.000000)">
                <path d="M12,24 C18.65004,24 24,18.65004 24,12 C24,5.34996 18.65004,0 12,0 C5.34996,0 0,5.34996 0,12 C0,18.65004 5.34996,24 12,24 Z" id="Path" fill="#2775CA" fill-rule="nonzero"></path>
                <path d="M15.7272727,13.7676091 C15.7272727,12.0249161 14.6729923,11.4274077 12.5644316,11.1784857 C11.0583168,10.9792764 10.7570938,10.5809773 10.7570938,9.88380454 C10.7570938,9.18663175 11.2591722,8.73861995 12.2632086,8.73861995 C13.1668775,8.73861995 13.668956,9.03737415 13.9199349,9.78425964 C13.9701789,9.93363673 14.1207904,10.0331816 14.2714019,10.0331816 L15.0745828,10.0331816 C15.2754383,10.0331816 15.4260498,9.88380454 15.4260498,9.68471474 L15.4260498,9.63488254 C15.2251943,8.53941066 14.3215254,7.69298027 13.1668775,7.59343537 L13.1668775,6.39841859 C13.1668775,6.1992093 13.016266,6.0498322 12.7652871,6 L12.0122297,6 C11.8113742,6 11.6607627,6.1493771 11.6105187,6.39841859 L11.6105187,7.54360317 C10.1044039,7.74281247 9.15061148,8.73861995 9.15061148,9.98346893 C9.15061148,11.626617 10.1546479,12.2738381 12.2632086,12.5228796 C13.668956,12.7718016 14.1207904,13.0705558 14.1207904,13.8672735 C14.1207904,14.6639912 13.4178565,15.2116673 12.4640641,15.2116673 C11.1586843,15.2116673 10.7068498,14.6638717 10.5562383,13.9169862 C10.5061148,13.7178964 10.3555033,13.618232 10.2048919,13.618232 L9.35134647,13.618232 C9.15061148,13.618232 9,13.7676091 9,13.9668184 L9,14.0166506 C9.20073498,15.26138 10.0040364,16.1576426 11.6607627,16.4066841 L11.6607627,17.6017009 C11.6607627,17.8007907 11.8113742,17.9501678 12.0623532,18 L12.8154106,18 C13.016266,18 13.1668775,17.8506229 13.2171215,17.6017009 L13.2171215,16.4066841 C14.7232363,16.1576426 15.7272727,15.1120029 15.7272727,13.7676091 L15.7272727,13.7676091 Z" id="Path" fill="#FFFFFF" fill-rule="nonzero"></path>
                <path d="M9.45689813,18.6253208 C5.56744822,17.2276013 3.57281863,12.8844388 5.01897594,9.04041049 C5.76694708,6.94371135 7.41248358,5.34626624 9.45689813,4.59744512 C9.65639699,4.49764224 9.75608659,4.34787801 9.75608659,4.0981911 L9.75608659,3.39933133 C9.75608659,3.19960576 9.65639699,3.04984153 9.45689813,3 C9.4069935,3 9.30730391,3 9.25739927,3.04984153 C4.52028863,4.54748377 1.92728213,9.58962585 3.4232244,14.3321197 C4.32078977,17.1276786 6.46501358,19.2743391 9.25739927,20.1729244 C9.45689813,20.2727273 9.65639699,20.1729244 9.70618195,19.9731988 C9.75608659,19.9233573 9.75608659,19.8733959 9.75608659,19.7735931 L9.75608659,19.0746135 C9.75608659,18.9248493 9.60649236,18.7252435 9.45689813,18.6253208 Z M14.7426007,3.04984153 C14.5431019,2.95003865 14.343603,3.04984153 14.293818,3.2495671 C14.2439134,3.29952845 14.2439134,3.34936998 14.2439134,3.44929267 L14.2439134,4.14815245 C14.2439134,4.34787801 14.3935076,4.54748377 14.5431019,4.64740646 C18.4325518,6.04512601 20.4271814,10.3882885 18.9810241,14.2323168 C18.2330529,16.3290159 16.5875164,17.926461 14.5431019,18.6752822 C14.343603,18.775085 14.2439134,18.9248493 14.2439134,19.1745362 L14.2439134,19.8733959 C14.2439134,20.0731215 14.343603,20.2228857 14.5431019,20.2727273 C14.5930065,20.2727273 14.6926961,20.2727273 14.7426007,20.2228857 C19.4797114,18.7252435 22.0727179,13.6831014 20.5767756,8.94060761 C19.6792102,6.09508736 17.4850818,3.94842688 14.7426007,3.04984153 Z" id="Shape" fill="#FFFFFF" fill-rule="nonzero"></path>
                <g id="usd-coin-usdc-logo"></g>
            </g>
        </g>
    </g>
</svg>