<?xml version="1.0" encoding="UTF-8"?>
<svg width="24px" height="22px" viewBox="0 0 24 22" version="1.1" xmlns="http://www.w3.org/2000/svg" xmlns:xlink="http://www.w3.org/1999/xlink">
    <title>Shape</title>
    <g id="Page-1" stroke="none" stroke-width="1" fill="none" fill-rule="evenodd">
        <g id="dashboard" transform="translate(-487.000000, -295.000000)" fill="#3CDE99">
            <path d="M501.441593,306.779401 L501.441593,306.779401 C501.305223,306.78954 500.600644,306.831219 499.028979,306.831219 C497.778919,306.831219 496.891377,306.794045 496.579999,306.779401 L496.579999,306.779401 C491.749088,306.568753 488.143236,305.735172 488.143236,304.737128 C488.143236,303.739083 491.749088,302.906629 496.579999,302.692601 L496.579999,305.9492 C496.895923,305.971729 497.800511,306.024673 499.050571,306.024673 C500.550642,306.024673 501.301814,305.962717 501.437047,305.950326 L501.437047,302.694854 C506.25773,302.907755 509.855628,303.741336 509.855628,304.737128 C509.855628,305.732919 506.258866,306.5665 501.437047,306.778275 L501.437047,306.778275 L501.441593,306.779401 Z M501.441593,302.358042 L501.441593,299.443888 L508.169184,299.443888 L508.169184,295 L489.852408,295 L489.852408,299.443888 L496.578863,299.443888 L496.578863,302.356916 C491.111558,302.605864 487,303.679381 487,304.965799 C487,306.252218 491.111558,307.324608 496.578863,307.574683 L496.578863,316.913043 L501.440456,316.913043 L501.440456,307.571303 C506.89526,307.322356 511,306.249965 511,304.964673 C511,303.679381 506.898669,302.60699 501.440456,302.356916 L501.440456,302.356916 L501.441593,302.358042 Z" id="Shape"></path>
        </g>
    </g>
</svg>